HIERARCHY
ROOT Hips
{
	OFFSET 0.00000 0.00000 0.00000
	CHANNELS 6 Xposition Yposition Zposition Zrotation Yrotation Xrotation 
	JOINT LHipJoint
	{
		OFFSET 0 0 0
		CHANNELS 3 Zrotation Yrotation Xrotation
		JOINT LeftUpLeg
		{
			OFFSET 1.86795 -1.59681 0.65681
			CHANNELS 3 Zrotation Yrotation Xrotation
			JOINT LeftLeg
			{
				OFFSET 2.30491 -6.33268 0.00000
				CHANNELS 3 Zrotation Yrotation Xrotation
				JOINT LeftFoot
				{
					OFFSET 2.46780 -6.78022 0.00000
					CHANNELS 3 Zrotation Yrotation Xrotation
					JOINT LeftToeBase
					{
						OFFSET 0.07897 -0.21698 1.59652
						CHANNELS 3 Zrotation Yrotation Xrotation
						End Site
						{
							OFFSET 0.00000 -0.00000 0.82310
						}
					}
				}
			}
		}
	}
	JOINT RHipJoint
	{
		OFFSET 0 0 0
		CHANNELS 3 Zrotation Yrotation Xrotation
		JOINT RightUpLeg
		{
			OFFSET -1.93650 -1.59681 0.65681
			CHANNELS 3 Zrotation Yrotation Xrotation
			JOINT RightLeg
			{
				OFFSET -2.29410 -6.30299 0.00000
				CHANNELS 3 Zrotation Yrotation Xrotation
				JOINT RightFoot
				{
					OFFSET -2.48738 -6.83403 0.00000
					CHANNELS 3 Zrotation Yrotation Xrotation
					JOINT RightToeBase
					{
						OFFSET -0.08699 -0.23899 1.89395
						CHANNELS 3 Zrotation Yrotation Xrotation
						End Site
						{
							OFFSET -0.00000 -0.00000 0.96904
						}
					}
				}
			}
		}
	}
	JOINT LowerBack
	{
		OFFSET 0 0 0
		CHANNELS 3 Zrotation Yrotation Xrotation
		JOINT Spine
		{
			OFFSET 0.03629 1.99740 -0.07548
			CHANNELS 3 Zrotation Yrotation Xrotation
			JOINT Spine1
			{
				OFFSET 0.03970 1.94298 0.17218
				CHANNELS 3 Zrotation Yrotation Xrotation
				JOINT Neck
				{
					OFFSET 0 0 0
					CHANNELS 3 Zrotation Yrotation Xrotation
					JOINT Neck1
					{
						OFFSET -0.05054 1.79469 0.04241
						CHANNELS 3 Zrotation Yrotation Xrotation
						JOINT Head
						{
							OFFSET 0.05195 1.78475 -0.22133
							CHANNELS 3 Zrotation Yrotation Xrotation
							End Site
							{
								OFFSET 0.02420 1.80711 -0.07950
							}
						}
					}
				}
				JOINT LeftShoulder
				{
					OFFSET 0 0 0
					CHANNELS 3 Zrotation Yrotation Xrotation
					JOINT LeftArm
					{
						OFFSET 2.92134 1.19850 0.36056
						CHANNELS 3 Zrotation Yrotation Xrotation
						JOINT LeftForeArm
						{
							OFFSET 4.84137 -0.00000 0.00000
							CHANNELS 3 Zrotation Yrotation Xrotation
							JOINT LeftHand
							{
								OFFSET 3.24520 -0.00000 -0.00000
								CHANNELS 3 Zrotation Yrotation Xrotation
								JOINT LeftFingerBase
								{
									OFFSET 0 0 0
									CHANNELS 3 Zrotation Yrotation Xrotation
									JOINT LeftHandIndex1
									{
										OFFSET 0.52122 -0.00000 0.00000
										CHANNELS 3 Zrotation Yrotation Xrotation
										End Site
										{
											OFFSET 0.42022 -0.00000 0.00000
										}
									}
								}
								JOINT LThumb
								{
									OFFSET 0 0 0
									CHANNELS 3 Zrotation Yrotation Xrotation
									End Site
									{
										OFFSET 0.42664 -0.00000 0.42664
									}
								}
							}
						}
					}
				}
				JOINT RightShoulder
				{
					OFFSET 0 0 0
					CHANNELS 3 Zrotation Yrotation Xrotation
					JOINT RightArm
					{
						OFFSET -2.84327 1.20795 0.50191
						CHANNELS 3 Zrotation Yrotation Xrotation
						JOINT RightForeArm
						{
							OFFSET -4.72284 -0.00000 0.00000
							CHANNELS 3 Zrotation Yrotation Xrotation
							JOINT RightHand
							{
								OFFSET -3.23459 -0.00000 0.00000
								CHANNELS 3 Zrotation Yrotation Xrotation
								JOINT RightFingerBase
								{
									OFFSET 0 0 0
									CHANNELS 3 Zrotation Yrotation Xrotation
									JOINT RightHandIndex1
									{
										OFFSET -0.30742 -0.00000 0.00000
										CHANNELS 3 Zrotation Yrotation Xrotation
										End Site
										{
											OFFSET -0.24785 -0.00000 0.00000
										}
									}
								}
								JOINT RThumb
								{
									OFFSET 0 0 0
									CHANNELS 3 Zrotation Yrotation Xrotation
									End Site
									{
										OFFSET -0.25163 -0.00000 0.25163
									}
								}
							}
						}
					}
				}
			}
		}
	}
}
MOTION
Frames: 7
Frame Time: .0083333
3.8352 15.1041 -3.6922 -5.6910 39.8125 28.6769 0.0000 0.0000 0.0000 19.3480 -28.3988 -75.7270 5.5790 14.0076 43.2679 -0.2127 -12.1355 -5.1677 1.4986 -7.7327 -21.9051 0.0000 0.0000 0.0000 17.9266 15.9339 -56.1375 -9.6461 -17.2060 58.2990 -1.5479 -19.1609 -36.8425 -1.6977 -8.2057 23.3407 -1.8169 3.3012 34.0851 -2.6497 3.1287 0.5267 -3.3633 1.3794 -17.0126 0.1000 5.7218 -9.5302 -1.2090 8.2483 -17.8309 -0.4995 4.4228 -4.2035 -0.0000 -0.0000 0.0000 -57.4176 25.9590 34.3023 30.2150 -41.0769 -11.5506 -0.0000 -0.0000 24.2398 1.7959 27.4385 0.8278 -7.1250 0.0000 -0.0000 -29.9967 54.7820 -7.7253 -0.0000 -0.0000 0.0000 59.5591 -35.2996 78.3649 -19.1529 29.6082 -5.1062 0.0000 0.0000 5.3243 -17.8028 32.9051 -9.8956 7.1250 -0.0000 -0.0000 7.9735 3.9264 8.5820
3.8645 15.0812 -3.6709 -5.5460 40.8394 28.8636 0.0000 0.0000 0.0000 19.4912 -28.9366 -76.4416 5.6527 14.0831 43.5713 -0.2550 -12.5037 -4.7938 1.3748 -7.4202 -20.9663 0.0000 0.0000 0.0000 18.1739 15.1439 -56.2906 -9.6468 -17.2064 58.3012 -1.6314 -19.1719 -37.2848 -1.8160 -8.4717 24.1562 -1.6289 2.9949 34.3414 -2.5717 2.8164 0.4836 -3.2529 1.2336 -17.1830 0.3133 5.5961 -9.2967 -1.3956 8.0714 -18.5108 -0.6261 4.3369 -4.4831 0.0000 -0.0000 0.0000 -58.6975 25.6147 32.5361 30.3922 -41.2272 -11.6673 -0.0000 -0.0000 24.9513 2.9223 27.9102 1.3688 -7.1250 0.0000 -0.0000 -29.2684 55.4038 -7.9711 0.0000 -0.0000 0.0000 59.8553 -34.9843 77.9511 -18.8513 29.2335 -4.9580 0.0000 0.0000 5.5333 -18.5372 33.1732 -10.3968 7.1250 -0.0000 -0.0000 7.5990 4.3358 8.2222
3.9125 15.0820 -3.6358 -5.9453 40.7318 29.0376 0.0000 0.0000 0.0000 19.5943 -28.4615 -76.8547 5.7556 14.1872 43.9926 -0.2519 -12.4446 -4.7836 1.2401 -7.0614 -19.8975 0.0000 0.0000 0.0000 18.3834 15.4381 -56.3771 -9.5851 -17.1698 58.0925 -1.6826 -19.1720 -37.5460 -1.9281 -8.7147 24.9069 -1.9875 3.2108 33.6065 -2.5886 2.9779 0.5235 -3.1146 1.3369 -16.8249 -0.2933 5.6029 -10.3148 -0.7766 8.1889 -17.8325 -0.2644 4.4163 -4.1068 -0.0000 0.0000 0.0000 -59.5888 25.2721 31.6001 30.5954 -41.3983 -11.8014 -0.0000 -0.0000 25.1020 4.0798 28.5619 1.9531 -7.1250 0.0000 -0.0000 -28.6427 56.2002 -8.3501 -0.0000 0.0000 0.0000 59.8932 -34.4893 78.2836 -18.7109 29.0579 -4.8896 0.0000 0.0000 5.0479 -18.3939 34.4200 -10.6456 7.1250 -0.0000 -0.0000 7.8472 5.5548 8.6480
3.9483 15.0879 -3.5978 -6.0794 40.9878 28.8038 0.0000 0.0000 0.0000 19.4313 -28.5597 -76.7174 5.8344 14.2659 44.3135 -0.2303 -12.3829 -5.1150 1.4357 -7.5756 -21.4324 0.0000 0.0000 0.0000 18.6941 15.2425 -55.9042 -9.5271 -17.1352 57.8959 -1.6872 -19.4797 -37.8575 -1.9092 -8.6744 24.7821 -2.0602 3.2525 34.0293 -2.7745 2.9517 0.4478 -3.2943 1.3177 -17.0952 -0.1610 5.5443 -10.5032 -0.5704 8.1309 -17.7728 -0.2099 4.3759 -4.0562 -0.0000 -0.0000 0.0000 -59.7977 25.0358 31.4764 30.7045 -41.4896 -11.8736 -0.0000 -0.0000 25.3252 5.1629 29.1438 2.5195 -7.1250 0.0000 -0.0000 -28.0397 56.9356 -8.6662 -0.0000 -0.0000 0.0000 60.2178 -34.3313 78.7620 -18.7443 29.0997 -4.9059 0.0000 0.0000 4.5477 -18.3665 35.1748 -10.8277 7.1250 -0.0000 -0.0000 7.9685 6.3026 8.8772
3.9794 15.0945 -3.5569 -6.2832 41.1613 28.6977 0.0000 0.0000 0.0000 19.2744 -28.4068 -76.7143 5.8974 14.3282 44.5686 -0.2267 -12.6054 -5.4221 1.6256 -8.0384 -22.8306 0.0000 0.0000 0.0000 19.0279 15.2327 -55.5539 -9.4647 -17.0976 57.6837 -1.5615 -20.1510 -37.8665 -1.8120 -8.4629 24.1293 -2.2280 3.3550 34.0983 -2.8765 2.9943 0.3870 -3.3432 1.3421 -17.1997 -0.2199 5.3089 -10.3265 -0.2030 7.8725 -18.0170 -0.0917 4.2396 -4.1988 -0.0000 0.0000 0.0000 -60.0861 24.7837 31.4460 30.6836 -41.4722 -11.8598 -0.0000 -0.0000 25.9904 5.8102 28.7643 2.8033 -7.1250 0.0000 -0.0000 -27.1107 56.7279 -8.2088 -0.0000 0.0000 0.0000 60.4834 -34.1608 79.1177 -18.7264 29.0772 -4.8971 0.0000 0.0000 4.1672 -19.1757 34.4971 -11.1423 7.1250 -0.0000 -0.0000 7.4302 5.7891 8.2080
4.0090 15.1031 -3.5241 -6.1499 41.4148 29.0997 0.0000 0.0000 0.0000 19.0336 -28.3325 -77.1272 5.9395 14.3694 44.7383 -0.2568 -12.9663 -5.2864 1.5860 -7.9444 -22.5454 0.0000 0.0000 0.0000 19.0161 15.1663 -55.6559 -9.4275 -17.0751 57.5571 -1.4453 -20.7353 -37.8569 -1.8452 -8.5359 24.3539 -2.5926 3.4400 33.7686 -2.9056 2.9714 0.3625 -3.1546 1.3629 -17.1001 -0.3965 5.1562 -10.3696 0.0976 7.7204 -18.0573 0.0378 4.1666 -4.2284 0.0000 0.0000 0.0000 -60.4186 24.5601 31.6250 30.7432 -41.5220 -11.8993 -0.0000 -0.0000 26.7515 5.8260 27.8104 2.7255 -7.1250 0.0000 -0.0000 -26.3967 55.8851 -7.4182 0.0000 0.0000 0.0000 60.6023 -33.9122 79.2083 -18.7025 29.0474 -4.8856 0.0000 0.0000 3.9187 -19.3588 33.4515 -10.9610 7.1250 -0.0000 -0.0000 7.1807 4.7779 7.8134
4.0333 15.1059 -3.5021 -5.7836 42.2280 29.2954 0.0000 0.0000 0.0000 18.8668 -28.9611 -77.5198 5.9980 14.4264 44.9738 -0.2752 -13.1918 -5.2180 1.6266 -8.0407 -22.8376 0.0000 0.0000 0.0000 19.1086 14.4546 -55.5680 -9.3774 -17.0445 57.3863 -1.4110 -21.0625 -38.0134 -1.9099 -8.6759 24.7865 -2.6013 3.2238 34.3470 -2.9429 2.6568 0.2865 -3.0819 1.2244 -17.4506 0.0271 5.1598 -10.4217 -0.1829 7.6649 -18.1124 -0.1241 4.1246 -4.2069 -0.0000 0.0000 0.0000 -60.6270 24.5171 31.8333 30.9322 -41.6791 -12.0247 -0.0000 -0.0000 27.7990 5.1790 27.1986 2.3723 -7.1250 0.0000 -0.0000 -26.5984 55.2209 -7.0395 -0.0000 0.0000 0.0000 60.9426 -33.6633 78.9002 -18.6211 28.9451 -4.8461 0.0000 0.0000 3.9785 -19.2273 32.5019 -10.6144 7.1250 -0.0000 -0.0000 7.1244 3.7960 7.6382
